<svg xmlns="http://www.w3.org/2000/svg" viewBox="0 0 512 512" width="512" height="512">
  <!-- Strawberry body -->
  <path d="M256 90 C 180 150, 100 250, 100 350 C 100 430, 170 480, 256 480 C 342 480, 412 430, 412 350 C 412 250, 332 150, 256 90" fill="#e53e3e" />
  
  <!-- Strawberry texture (seeds) -->
  <g fill="#ffeb3b">
    <circle cx="150" cy="200" r="5" />
    <circle cx="180" cy="230" r="5" />
    <circle cx="210" cy="200" r="5" />
    <circle cx="240" cy="230" r="5" />
    <circle cx="270" cy="200" r="5" />
    <circle cx="300" cy="230" r="5" />
    <circle cx="330" cy="200" r="5" />
    <circle cx="360" cy="230" r="5" />
    
    <circle cx="150" cy="260" r="5" />
    <circle cx="180" cy="290" r="5" />
    <circle cx="210" cy="260" r="5" />
    <circle cx="240" cy="290" r="5" />
    <circle cx="270" cy="260" r="5" />
    <circle cx="300" cy="290" r="5" />
    <circle cx="330" cy="260" r="5" />
    <circle cx="360" cy="290" r="5" />
    
    <circle cx="150" cy="320" r="5" />
    <circle cx="180" cy="350" r="5" />
    <circle cx="210" cy="320" r="5" />
    <circle cx="240" cy="350" r="5" />
    <circle cx="270" cy="320" r="5" />
    <circle cx="300" cy="350" r="5" />
    <circle cx="330" cy="320" r="5" />
    <circle cx="360" cy="350" r="5" />
    
    <circle cx="150" cy="380" r="5" />
    <circle cx="180" cy="410" r="5" />
    <circle cx="210" cy="380" r="5" />
    <circle cx="240" cy="410" r="5" />
    <circle cx="270" cy="380" r="5" />
    <circle cx="300" cy="410" r="5" />
    <circle cx="330" cy="380" r="5" />
    <circle cx="360" cy="410" r="5" />
  </g>
  
  <!-- Strawberry stem and leaves -->
  <path d="M256 90 C 256 70, 256 50, 256 30" stroke="#38a169" stroke-width="10" fill="none" />
  
  <!-- Left leaf -->
  <path d="M256 60 C 220 40, 180 50, 200 80 C 220 100, 240 80, 256 60" fill="#38a169" />
  
  <!-- Right leaf -->
  <path d="M256 60 C 292 40, 332 50, 312 80 C 292 100, 272 80, 256 60" fill="#38a169" />
  
  <!-- Small leaf on stem -->
  <path d="M256 40 C 236 30, 226 10, 246 20 C 256 30, 256 30, 256 40" fill="#38a169" />
</svg>