<svg xmlns="http://www.w3.org/2000/svg" viewBox="0 0 32 48" width="32" height="48">
  <!-- Pin base -->
  <path d="M16 0C7.2 0 0 7.2 0 16c0 8.8 16 32 16 32s16-23.2 16-32c0-8.8-7.2-16-16-16z" fill="#e53e3e" />
  
  <!-- Strawberry body inside pin -->
  <path d="M16 8 C 12 10, 8 14, 8 20 C 8 26, 12 30, 16 30 C 20 30, 24 26, 24 20 C 24 14, 20 10, 16 8" fill="#e53e3e" />
  
  <!-- Strawberry texture (seeds) -->
  <g fill="#ffeb3b">
    <circle cx="12" cy="14" r="1" />
    <circle cx="16" cy="14" r="1" />
    <circle cx="20" cy="14" r="1" />
    <circle cx="12" cy="18" r="1" />
    <circle cx="16" cy="18" r="1" />
    <circle cx="20" cy="18" r="1" />
    <circle cx="12" cy="22" r="1" />
    <circle cx="16" cy="22" r="1" />
    <circle cx="20" cy="22" r="1" />
    <circle cx="12" cy="26" r="1" />
    <circle cx="16" cy="26" r="1" />
    <circle cx="20" cy="26" r="1" />
  </g>
  
  <!-- Strawberry stem and leaves -->
  <path d="M16 8 C 16 7, 16 6, 16 5" stroke="#38a169" stroke-width="1.5" fill="none" />
  
  <!-- Left leaf -->
  <path d="M16 6 C 14 5, 12 5, 13 7 C 14 8, 15 7, 16 6" fill="#38a169" />
  
  <!-- Right leaf -->
  <path d="M16 6 C 18 5, 20 5, 19 7 C 18 8, 17 7, 16 6" fill="#38a169" />
  
  <!-- White circle for contrast -->
  <circle cx="16" cy="16" r="8" fill="white" />
  
  <!-- Strawberry on white background -->
  <path d="M16 10 C 13 11, 10 13, 10 18 C 10 22, 13 24, 16 24 C 19 24, 22 22, 22 18 C 22 13, 19 11, 16 10" fill="#e53e3e" />
  
  <!-- Strawberry texture (seeds) on white background -->
  <g fill="#ffeb3b">
    <circle cx="13" cy="14" r="0.8" />
    <circle cx="16" cy="14" r="0.8" />
    <circle cx="19" cy="14" r="0.8" />
    <circle cx="13" cy="17" r="0.8" />
    <circle cx="16" cy="17" r="0.8" />
    <circle cx="19" cy="17" r="0.8" />
    <circle cx="13" cy="20" r="0.8" />
    <circle cx="16" cy="20" r="0.8" />
    <circle cx="19" cy="20" r="0.8" />
  </g>
  
  <!-- Strawberry stem and leaves on white background -->
  <path d="M16 10 C 16 9, 16 8, 16 7" stroke="#38a169" stroke-width="1" fill="none" />
  
  <!-- Left leaf on white background -->
  <path d="M16 8 C 15 7, 14 7, 14.5 8.5 C 15 9, 15.5 8.5, 16 8" fill="#38a169" />
  
  <!-- Right leaf on white background -->
  <path d="M16 8 C 17 7, 18 7, 17.5 8.5 C 17 9, 16.5 8.5, 16 8" fill="#38a169" />
</svg>